<svg width="19" height="12" viewBox="0 0 19 12" fill="none" xmlns="http://www.w3.org/2000/svg">
<path d="M6.16658 11.9695C4.60456 11.9695 3.28163 11.4129 2.1978 10.2996C1.11411 9.18615 0.572266 7.84492 0.572266 6.2759C0.572266 4.70688 1.11411 3.36747 2.1978 2.25768C3.28163 1.14774 4.60456 0.592773 6.16658 0.592773H14.3754C15.5075 0.592773 16.466 0.994763 17.2509 1.79874C18.0356 2.60272 18.428 3.57426 18.428 4.71337C18.428 5.85233 18.0356 6.82212 17.2509 7.62274C16.466 8.42322 15.5075 8.82346 14.3754 8.82346H6.60933C5.90714 8.82346 5.31309 8.57525 4.82717 8.07884C4.3414 7.58256 4.09852 6.98159 4.09852 6.2759C4.09852 5.57021 4.3414 4.97098 4.82717 4.47821C5.31309 3.98529 5.90714 3.73884 6.60933 3.73884H13.7338C14.0062 3.73884 14.2358 3.83231 14.4226 4.01927C14.6096 4.20608 14.7031 4.4357 14.7031 4.70812C14.7031 4.98039 14.6096 5.21 14.4226 5.39696C14.2358 5.58377 14.0062 5.67718 13.7338 5.67718H6.60933C6.4406 5.67718 6.30213 5.73391 6.19392 5.84737C6.08557 5.96097 6.03139 6.10381 6.03139 6.2759C6.03139 6.44813 6.08469 6.59272 6.1913 6.70968C6.29775 6.82664 6.4371 6.88512 6.60933 6.88512H14.3701C14.9686 6.87403 15.4724 6.6598 15.8815 6.24243C16.2904 5.82505 16.4949 5.31537 16.4949 4.71337C16.4949 4.11122 16.2913 3.59694 15.8841 3.17052C15.4768 2.74425 14.9739 2.53112 14.3754 2.53112H6.16658C5.13816 2.51989 4.27082 2.88323 3.56455 3.62115C2.85842 4.35907 2.50536 5.24573 2.50536 6.28115C2.50536 7.30548 2.85842 8.18106 3.56455 8.9079C4.27082 9.63459 5.13816 10.009 6.16658 10.0312H13.9326C14.2049 10.0312 14.4345 10.1247 14.6215 10.3116C14.8083 10.4986 14.9017 10.7282 14.9017 11.0005C14.9017 11.2727 14.8083 11.5023 14.6215 11.6893C14.4345 11.8761 14.2049 11.9695 13.9326 11.9695H6.16658Z" fill="#171929"/>
</svg>
