<svg width="299" height="64" viewBox="0 0 299 64" fill="none" xmlns="http://www.w3.org/2000/svg">
<path d="M270.701 13.5077H276.123V33.6268H277.947L287.582 23.4259H294.623L282.469 36.3248L295.702 50.0459H288.122L277.459 39.0485H276.123V50.0459H270.701V13.5077Z" fill="white"/>
<path d="M252.201 30.8774C252.201 29.507 252.543 28.2565 253.229 27.126C253.931 25.9954 254.856 25.0961 256.004 24.428C257.168 23.7599 258.453 23.4259 259.858 23.4259H265.793V28.8218H259.858C259.241 28.8218 258.71 29.036 258.265 29.4642C257.837 29.8753 257.622 30.3807 257.622 30.9802V50.0458H252.201V30.8774Z" fill="white"/>
<path d="M221.264 33.0358C221.264 31.2714 221.692 29.6612 222.549 28.2052C223.422 26.7491 224.587 25.5928 226.043 24.7363C227.499 23.8627 229.11 23.4259 230.874 23.4259H236.681C238.445 23.4259 240.056 23.8627 241.512 24.7363C242.968 25.5928 244.124 26.7491 244.98 28.2052C245.854 29.6612 246.291 31.2714 246.291 33.0358V40.4359C246.291 42.2003 245.854 43.8105 244.98 45.2666C244.124 46.7226 242.968 47.8875 241.512 48.7611C240.056 49.6176 238.445 50.0458 236.681 50.0458H230.874C229.11 50.0458 227.499 49.6176 226.043 48.7611C224.587 47.8875 223.422 46.7226 222.549 45.2666C221.692 43.8105 221.264 42.2003 221.264 40.4359V33.0358ZM226.686 40.3845C226.686 41.5494 227.097 42.5515 227.919 43.3909C228.741 44.2131 229.726 44.6242 230.874 44.6242H236.681C237.846 44.6242 238.831 44.2131 239.636 43.3909C240.458 42.5515 240.869 41.5494 240.869 40.3845V33.0872C240.869 31.9223 240.458 30.9288 239.636 30.1066C238.831 29.2672 237.846 28.8475 236.681 28.8475H230.874C229.726 28.8475 228.741 29.2672 227.919 30.1066C227.097 30.9288 226.686 31.9223 226.686 33.0872V40.3845Z" fill="white"/>
<path d="M183.39 13.5077L188.169 41.0527L194.747 29.0788H199.86L206.438 41.0527L211.217 13.5077H216.639L210.292 50.0459H205.41L197.291 35.3484L189.197 50.0459H184.289L177.942 13.5077H183.39Z" fill="white"/>
<path fill-rule="evenodd" clip-rule="evenodd" d="M269.649 12.4553H277.175V32.5744H277.493L287.129 22.3735H297.061L283.923 36.3164L298.179 51.0984H287.677L277.175 40.2678V51.0984H269.649V12.4553ZM277.459 39.0485L288.122 50.0459H295.702L282.469 36.3248L294.623 23.4259H287.582L277.947 33.6268H276.123V13.5077H270.701V50.0459H276.123V39.0485H277.459Z" fill="white"/>
<path fill-rule="evenodd" clip-rule="evenodd" d="M253.229 27.126C252.543 28.2565 252.201 29.507 252.201 30.8774V50.0458H257.622V30.9802C257.622 30.3807 257.837 29.8753 258.265 29.4642C258.71 29.036 259.241 28.8218 259.858 28.8218H265.793V23.4259H259.858C258.453 23.4259 257.168 23.7599 256.004 24.428C254.856 25.0961 253.931 25.9954 253.229 27.126ZM252.331 26.5755L252.334 26.5706C253.127 25.2943 254.177 24.2732 255.474 23.5184L255.477 23.5167L255.48 23.515C256.812 22.7513 258.278 22.3734 259.858 22.3734H266.846V29.8743H259.858C259.514 29.8743 259.244 29.9827 258.994 30.2229C258.775 30.4333 258.675 30.664 258.675 30.9802V51.0983H251.148V30.8774C251.148 29.3221 251.54 27.8817 252.328 26.5805L252.331 26.5755Z" fill="white"/>
<path fill-rule="evenodd" clip-rule="evenodd" d="M222.549 28.2052C221.692 29.6612 221.264 31.2714 221.264 33.0358V40.4359C221.264 42.2003 221.692 43.8105 222.549 45.2666C223.422 46.7226 224.587 47.8875 226.043 48.7611C227.499 49.6176 229.11 50.0458 230.874 50.0458H236.681C238.445 50.0458 240.056 49.6176 241.512 48.7611C242.968 47.8875 244.124 46.7226 244.98 45.2666C245.854 43.8105 246.291 42.2003 246.291 40.4359V33.0358C246.291 31.2714 245.854 29.6612 244.98 28.2052C244.124 26.7491 242.968 25.5928 241.512 24.7363C240.056 23.8627 238.445 23.4259 236.681 23.4259H230.874C229.11 23.4259 227.499 23.8627 226.043 24.7363C224.587 25.5928 223.422 26.7491 222.549 28.2052ZM242.049 23.8315C243.656 24.7777 244.939 26.0604 245.885 27.6674C246.859 29.2926 247.343 31.09 247.343 33.0358V40.4359C247.343 42.3818 246.859 44.1791 245.885 45.8043C244.939 47.4108 243.658 48.7008 242.053 49.6636L242.049 49.6659L242.045 49.6683C240.42 50.6242 238.624 51.0983 236.681 51.0983H230.874C228.931 51.0983 227.135 50.6242 225.51 49.6683L225.506 49.6659L225.502 49.6636C223.898 48.7011 222.609 47.4123 221.646 45.8081L221.644 45.8042L221.642 45.8002C220.686 44.1751 220.211 42.3793 220.211 40.4359V33.0358C220.211 31.0925 220.686 29.2967 221.642 27.6715L221.644 27.6676L221.646 27.6637C222.609 26.0589 223.899 24.7773 225.506 23.8313C227.131 22.8573 228.928 22.3734 230.874 22.3734H236.681C238.627 22.3734 240.424 22.8574 242.049 23.8315ZM227.919 43.3909C227.097 42.5515 226.686 41.5494 226.686 40.3845V33.0872C226.686 31.9223 227.097 30.9288 227.919 30.1066C228.741 29.2672 229.726 28.8475 230.874 28.8475H236.681C237.846 28.8475 238.831 29.2672 239.636 30.1066C240.458 30.9288 240.869 31.9223 240.869 33.0872V40.3845C240.869 41.5494 240.458 42.5515 239.636 43.3909C238.831 44.2131 237.846 44.6242 236.681 44.6242H230.874C229.726 44.6242 228.741 44.2131 227.919 43.3909ZM238.884 42.6544C239.515 42.0098 239.817 41.2713 239.817 40.3846V33.0872C239.817 32.2009 239.516 31.4753 238.892 30.8508L238.884 30.843L238.876 30.8351C238.27 30.203 237.559 29.9 236.681 29.9H230.874C230.016 29.9 229.3 30.2004 228.671 30.8431L228.667 30.847L228.663 30.8508C228.039 31.4753 227.738 32.2009 227.738 33.0872V40.3846C227.738 41.2696 228.038 42.0069 228.667 42.6505C229.294 43.2757 230.011 43.5718 230.874 43.5718H236.681C237.567 43.5718 238.28 43.2716 238.884 42.6544Z" fill="white"/>
<path fill-rule="evenodd" clip-rule="evenodd" d="M184.275 12.4553L188.693 37.9138L194.124 28.0264H200.483L205.914 37.9138L210.332 12.4553H217.89L211.178 51.0984H204.789L197.292 37.5275L189.819 51.0984H183.404L176.691 12.4553H184.275ZM197.291 35.3484L205.41 50.0459H210.292L216.639 13.5077H211.217L206.438 41.0527L199.86 29.0788H194.747L188.169 41.0527L183.39 13.5077H177.942L184.289 50.0459H189.197L197.291 35.3484Z" fill="white"/>
<path d="M157.713 29.6126C157.713 28.2422 158.056 26.9917 158.741 25.8612C159.443 24.7306 160.368 23.8313 161.516 23.1632C162.681 22.4951 163.966 22.1611 165.37 22.1611H171.306V27.557H165.37C164.754 27.557 164.222 27.7711 163.777 28.1994C163.349 28.6105 163.135 29.1158 163.135 29.7154V48.781H157.713V29.6126Z" fill="white"/>
<path fill-rule="evenodd" clip-rule="evenodd" d="M157.844 25.3107L157.847 25.3058C158.64 24.0295 159.69 23.0084 160.986 22.2536L160.989 22.2519L160.992 22.2502C162.324 21.4865 163.791 21.1086 165.37 21.1086H172.358V28.6095H165.37C165.026 28.6095 164.756 28.7179 164.507 28.958C164.287 29.1685 164.187 29.3992 164.187 29.7154V49.8335H156.661V29.6126C156.661 28.0573 157.052 26.6169 157.841 25.3157L157.844 25.3107ZM158.741 25.8612C158.056 26.9917 157.713 28.2422 157.713 29.6126V48.781H163.135V29.7154C163.135 29.1158 163.349 28.6105 163.777 28.1994C164.222 27.7711 164.754 27.557 165.37 27.557H171.306V22.1611H165.37C163.966 22.1611 162.681 22.4951 161.516 23.1632C160.368 23.8313 159.443 24.7306 158.741 25.8612Z" fill="white"/>
<path d="M127.341 27.6598C127.341 26.1352 127.898 24.8419 129.012 23.7799C130.125 22.7007 131.461 22.1611 133.02 22.1611H144.12C145.542 22.1611 146.827 22.5122 147.974 23.2146C149.139 23.8998 150.064 24.8334 150.749 26.0153C151.452 27.1802 151.803 28.4735 151.803 29.8953V30.6404C151.803 32.0451 151.452 33.3298 150.749 34.4946C150.064 35.6424 149.139 36.5674 147.974 37.2697C146.827 37.9549 145.542 38.2975 144.12 38.2975H135.846V32.9016H144.172C144.788 32.9016 145.311 32.6789 145.739 32.2335C146.184 31.7881 146.407 31.2485 146.407 30.6147V29.8953C146.407 29.2443 146.184 28.6962 145.739 28.2508C145.311 27.8054 144.788 27.5827 144.172 27.5827H132.763V41.2524C132.763 41.8348 132.96 42.3316 133.354 42.7427C133.748 43.1538 134.228 43.3594 134.793 43.3594H149.927V48.781H134.793C133.423 48.781 132.172 48.447 131.041 47.7789C129.911 47.0937 129.012 46.1858 128.344 45.0553C127.675 43.9076 127.341 42.6485 127.341 41.2781V27.6598Z" fill="white"/>
<path fill-rule="evenodd" clip-rule="evenodd" d="M148.516 38.1722L148.514 38.1734C147.193 38.9622 145.719 39.35 144.12 39.35H134.794V31.8491H144.172C144.501 31.8491 144.75 31.7435 144.98 31.504L144.987 31.4966L144.995 31.4893C145.241 31.2427 145.355 30.9714 145.355 30.6147V29.8953C145.355 29.513 145.236 29.2357 144.995 28.995L144.987 28.9877L144.98 28.9803C144.75 28.7408 144.501 28.6352 144.172 28.6352H133.816V41.2524C133.816 41.5703 133.912 41.8042 134.114 42.0145C134.311 42.2202 134.517 42.3069 134.793 42.3069H150.98V49.8335H134.793C133.243 49.8335 131.806 49.4532 130.506 48.685L130.501 48.682L130.496 48.679C129.218 47.9045 128.194 46.8717 127.437 45.5907L127.436 45.5877L127.434 45.5847C126.669 44.271 126.289 42.8283 126.289 41.2781V27.6598C126.289 25.8459 126.965 24.2793 128.282 23.0212C129.593 21.7525 131.191 21.1086 133.02 21.1086H144.12C145.721 21.1086 147.195 21.5059 148.516 22.3121C149.833 23.0883 150.882 24.1491 151.656 25.4797C152.458 26.8141 152.855 28.2941 152.855 29.8953V30.6404C152.855 32.2292 152.456 33.7022 151.652 35.0361C150.877 36.3339 149.827 37.3815 148.518 38.171L148.516 38.1722ZM150.749 34.4946C151.452 33.3298 151.803 32.0451 151.803 30.6404V29.8953C151.803 28.4735 151.452 27.1802 150.749 26.0153C150.064 24.8334 149.139 23.8998 147.974 23.2146C146.827 22.5122 145.542 22.1611 144.12 22.1611H133.02C131.461 22.1611 130.125 22.7007 129.012 23.7799C127.898 24.8419 127.341 26.1352 127.341 27.6598V41.2781C127.341 42.6485 127.675 43.9076 128.344 45.0553C129.012 46.1858 129.911 47.0937 131.041 47.7789C132.172 48.447 133.423 48.781 134.793 48.781H149.927V43.3594H134.793C134.228 43.3594 133.748 43.1538 133.354 42.7427C132.96 42.3316 132.763 41.8348 132.763 41.2524V27.5827H144.172C144.788 27.5827 145.311 27.8054 145.739 28.2508C146.184 28.6962 146.407 29.2443 146.407 29.8953V30.6147C146.407 31.2485 146.184 31.7881 145.739 32.2335C145.311 32.6789 144.788 32.9016 144.172 32.9016H135.846V38.2975H144.12C145.542 38.2975 146.827 37.9549 147.974 37.2697C149.139 36.5674 150.064 35.6424 150.749 34.4946Z" fill="white"/>
<path d="M92.9103 22.1611L95.968 39.7879L102.546 28.5592H107.659L114.237 39.7879L117.295 22.1611H122.716L118.117 48.7811H113.363L105.115 34.8287L96.8417 48.7811H92.0881L87.463 22.1611H92.9103Z" fill="white"/>
<path fill-rule="evenodd" clip-rule="evenodd" d="M93.796 21.1087L96.5135 36.7746L101.943 27.5067H108.262L113.692 36.7746L116.409 21.1087H123.966L119.003 49.8336H112.763L105.114 36.8945L97.4411 49.8336H91.2027L86.2119 21.1087H93.796ZM105.115 34.8287L113.363 48.7811H118.117L122.716 22.1611H117.295L114.237 39.7879L107.659 28.5592H102.546L95.968 39.7879L92.9103 22.1611H87.463L92.0881 48.7811H96.8417L105.115 34.8287Z" fill="white"/>
<path d="M32.4278 12.2429H37.8494V48.7811H32.4278V12.2429Z" fill="white"/>
<path fill-rule="evenodd" clip-rule="evenodd" d="M31.3754 11.1904H38.9019V49.8335H31.3754V11.1904ZM32.4278 12.2429V48.7811H37.8494V12.2429H32.4278Z" fill="white"/>
<path d="M1.79953 12.2429H26.2611V17.6388H7.22116V48.7811H1.79953V12.2429ZM10.3046 27.0689H26.2611V32.4648H10.3046V27.0689Z" fill="white"/>
<path fill-rule="evenodd" clip-rule="evenodd" d="M0.74707 11.1904H27.3136V18.6913H8.27363V49.8335H0.74707V11.1904ZM7.22116 17.6388H26.2611V12.2429H1.79953V48.7811H7.22116V17.6388ZM9.25209 26.0164H27.3136V33.5173H9.25209V26.0164ZM10.3046 27.0689V32.4648H26.2611V27.0689H10.3046Z" fill="white"/>
<path d="M71.3166 17.9657C71.9352 17.9657 72.4367 17.4642 72.4367 16.8456C72.4367 16.2271 71.9352 15.7256 71.3166 15.7256C70.6981 15.7256 70.1966 16.2271 70.1966 16.8456C70.1966 17.4642 70.6981 17.9657 71.3166 17.9657Z" fill="white"/>
<path fill-rule="evenodd" clip-rule="evenodd" d="M46.4643 33.2511C47.5406 33.234 48.4541 33.9679 48.7051 34.9688L52.8777 35.0904C52.6423 34.7866 52.4524 34.4524 52.3129 34.0929C51.921 33.0831 51.9815 32.0129 52.3531 31.1084C52.7242 30.205 53.4314 29.404 54.4118 28.962C54.6011 28.8766 54.7958 28.8068 54.9947 28.7526L52.476 26.2339C51.3623 26.8915 49.9047 26.7577 48.9276 25.8169C47.7529 24.6857 47.7175 22.8164 48.8486 21.6417C49.9797 20.4669 51.849 20.4315 53.0238 21.5626C54.0421 22.5431 54.2043 24.0782 53.4928 25.2348L56.4525 28.1945C56.4884 27.7893 56.5845 27.3942 56.7407 27.0178C57.156 26.0173 57.9398 25.2861 58.8338 24.8897C59.7266 24.4938 60.7914 24.4043 61.8052 24.7631C62.1416 24.8821 62.4578 25.0453 62.7489 25.2489L62.8188 21.3305C62.0028 21.0036 61.4167 20.2162 61.3913 19.2816C61.3571 18.0268 62.3467 16.9819 63.6015 16.9477C64.8563 16.9135 65.9013 17.9031 65.9354 19.1579C65.9647 20.234 65.2411 21.1558 64.2429 21.4181L64.1742 25.2746C64.5039 25.0426 64.8648 24.8629 65.2498 24.7405C66.2747 24.4149 67.3361 24.5388 68.2156 24.9634C69.0962 25.3885 69.8559 26.1447 70.2386 27.1581C70.2823 27.2738 70.3205 27.3911 70.353 27.5097L73.1031 24.7596C72.3915 23.6029 72.5537 22.0678 73.572 21.0874C74.7468 19.9563 76.6161 19.9916 77.7472 21.1664C78.8784 22.3412 78.843 24.2105 77.6682 25.3416C76.6911 26.2824 75.2336 26.4162 74.1199 25.7587L70.7487 29.13C71.4765 29.0718 72.1841 29.2 72.824 29.5084C73.7927 29.9752 74.4793 30.794 74.8273 31.7066C75.1757 32.6203 75.2089 33.6917 74.7914 34.6912C74.6276 35.0833 74.4033 35.4433 74.1254 35.7643L78.4229 35.7002C78.6881 34.7029 79.6119 33.9821 80.6879 34.0146C81.9426 34.0524 82.9291 35.1002 82.8913 36.3549C82.8534 37.6097 81.8056 38.5962 80.5509 38.5583C79.6163 38.5301 78.8306 37.9416 78.5061 37.1247L74.0733 37.1907C74.2668 37.4504 74.4278 37.732 74.5534 38.0326C74.9709 39.0321 74.9377 40.1035 74.5893 41.0172C74.2414 41.9298 73.5548 42.7485 72.586 43.2154C72.1212 43.4394 71.6208 43.5683 71.1028 43.5998L73.7338 46.2308C74.8686 45.4205 76.4546 45.507 77.4954 46.5092C78.6702 47.6403 78.7056 49.5096 77.5744 50.6844C76.4433 51.8592 74.574 51.8945 73.3992 50.7634C72.446 49.8456 72.2429 48.4419 72.8044 47.3175L70.0445 44.5575C69.969 44.9706 69.8299 45.3667 69.6288 45.736C69.1147 46.6805 68.263 47.3258 67.3344 47.6282C66.4046 47.9311 65.3328 47.9113 64.3551 47.4449C64.1455 47.3449 63.9464 47.2274 63.7588 47.0934L63.7838 50.43C64.7791 50.7027 65.4931 51.6318 65.4526 52.7075C65.4055 53.9619 64.3504 54.9406 63.0959 54.8935C61.8415 54.8463 60.8629 53.7912 60.91 52.5368C60.9451 51.6025 61.5394 50.8211 62.3588 50.5027L62.3295 46.5933C61.9964 46.8817 61.6217 47.1122 61.2133 47.2773C60.209 47.6832 59.138 47.6377 58.2284 47.2787C57.3199 46.9202 56.5091 46.2242 56.0535 45.2501C55.9498 45.0283 55.8675 44.7987 55.807 44.5632L53.7305 46.6398C54.4419 47.7964 54.2797 49.3314 53.2614 50.3119C52.0867 51.443 50.2174 51.4076 49.0862 50.2329C47.9551 49.0581 47.9905 47.1888 49.1653 46.0577C50.1424 45.1168 51.6 44.983 52.7136 45.6406L55.5026 42.8515C54.9995 42.8033 54.5158 42.6628 54.0683 42.433C53.1117 41.9416 52.4462 41.1056 52.1216 40.1844C51.7967 39.2621 51.7908 38.1902 52.2337 37.2017C52.3433 36.9569 52.4767 36.7256 52.632 36.5094L48.6016 36.3919C48.2655 37.2042 47.4715 37.7815 46.5366 37.7964C45.2814 37.8163 44.2478 36.815 44.2278 35.5599C44.2078 34.3048 45.2091 33.2711 46.4643 33.2511ZM57.9496 36.6644L55.3704 36.7466C52.4813 37.8386 53.9121 41.7794 56.7639 40.821L59.7202 38.033C59.4743 37.6045 59.3005 37.1293 59.2153 36.624L58.7118 36.6401L58.7105 36.6866L57.9496 36.6644ZM45.6531 35.5372C45.6606 36.0052 46.046 36.3785 46.5139 36.371C46.9818 36.3636 47.3552 35.9782 47.3477 35.5103C47.3403 35.0423 46.9549 34.669 46.4869 34.6765C46.019 34.6839 45.6457 35.0693 45.6531 35.5372ZM81.4664 36.312C81.4523 36.7798 81.0616 37.1476 80.5938 37.1335C80.1261 37.1193 79.7583 36.7287 79.7724 36.2609C79.7865 35.7931 80.1771 35.4253 80.6449 35.4394C81.1127 35.4535 81.4805 35.8442 81.4664 36.312ZM63.6403 18.3727C63.1725 18.3854 62.8035 18.775 62.8163 19.2428C62.829 19.7107 63.2186 20.0796 63.6864 20.0668C64.1543 20.0541 64.5232 19.6645 64.5104 19.1967C64.4977 18.7289 64.1081 18.3599 63.6403 18.3727ZM63.1495 53.469C62.6818 53.4514 62.3169 53.058 62.3345 52.5903C62.3521 52.1227 62.7455 51.7578 63.2131 51.7754C63.6808 51.793 64.0457 52.1863 64.0281 52.654C64.0105 53.1217 63.6172 53.4865 63.1495 53.469ZM50.154 47.0845C49.5464 47.6696 49.5281 48.6365 50.1131 49.2441C50.6982 49.8518 51.6651 49.8701 52.2727 49.285C52.8803 48.6999 52.8986 47.7331 52.3136 47.1254C51.7285 46.5178 50.7616 46.4995 50.154 47.0845ZM49.9164 24.79C49.3087 24.2049 49.2904 23.238 49.8755 22.6304C50.4606 22.0228 51.4274 22.0044 52.0351 22.5895C52.6427 23.1746 52.661 24.1415 52.076 24.7491C51.4909 25.3567 50.524 25.375 49.9164 24.79ZM76.5067 47.5361C77.1143 48.1211 77.1326 49.088 76.5475 49.6956C75.9625 50.3033 74.9956 50.3216 74.388 49.7365C73.7803 49.1515 73.762 48.1846 74.3471 47.5769C74.9321 46.9693 75.899 46.951 76.5067 47.5361ZM76.6795 24.3147C77.2871 23.7297 77.3054 22.7628 76.7204 22.1551C76.1353 21.5475 75.1684 21.5292 74.5608 22.1143C73.9531 22.6993 73.9348 23.6662 74.5199 24.2738C75.105 24.8815 76.0718 24.8998 76.6795 24.3147ZM58.5619 29.6119C58.5517 29.5874 58.5419 29.563 58.5324 29.5386C57.44 26.7326 61.2334 25.1213 62.4821 27.8301L62.4823 31.737C61.9471 31.8583 61.4501 32.0801 61.012 32.3813L58.5619 29.6119ZM59.8145 33.6259L57.0218 30.7092L56.9811 30.6935C54.2068 29.6441 52.6064 33.4754 55.4224 34.7073L59.2468 35.0249C59.3527 34.5201 59.5477 34.048 59.8145 33.6259ZM64.5581 40.0344C64.3856 40.1002 64.2037 40.1436 63.9647 40.1723L63.9425 40.1749L63.9753 44.2981C64.9978 47.2126 68.9718 45.8765 68.0819 43.0025L65.2041 39.801C64.9971 39.8953 64.7812 39.9737 64.5581 40.0344ZM66.851 38.4772L69.9323 41.5353C72.7588 42.5661 74.2896 38.663 71.4292 37.4977L67.4867 37.2713C67.3394 37.7092 67.1232 38.1155 66.851 38.4772ZM67.685 35.4548L71.6672 35.226C74.5276 34.0608 72.9968 30.1577 70.1703 31.1885L67.2858 34.0512C67.4945 34.4836 67.6325 34.9564 67.685 35.4548ZM65.8175 32.3577L68.3344 29.6919C69.614 26.8808 65.8213 25.094 64.474 27.784L64.346 31.729C64.8807 31.8454 65.3781 32.0618 65.8175 32.3577ZM62.934 34.0729L63.1787 34.0237C63.2616 34.0127 63.3462 34.007 63.4321 34.007C64.4818 34.007 65.3328 34.858 65.3328 35.9077C65.3328 36.9574 64.4818 37.8084 63.4321 37.8084C62.3824 37.8084 61.5314 36.9574 61.5314 35.9077C61.5314 35.0303 62.1259 34.2918 62.934 34.0729ZM60.8959 39.5326L60.8985 39.5344C61.3119 39.8139 61.5533 39.9512 62.0407 40.041L62.0682 40.046L61.7842 44.1595C60.5859 47.0062 56.7008 45.4304 57.7642 42.6161L60.8959 39.5326Z" fill="white"/>
<path d="M56.8193 15.0196C56.8193 16.0319 55.9987 16.8524 54.9865 16.8524C53.9743 16.8524 53.1537 16.0319 53.1537 15.0196C53.1537 14.0074 53.9743 13.1868 54.9865 13.1868C55.9987 13.1868 56.8193 14.0074 56.8193 15.0196Z" fill="white"/>
</svg>
