<svg width="21" height="20" viewBox="0 0 21 20" fill="none" xmlns="http://www.w3.org/2000/svg">
<path d="M12.6768 13.3434C12.3441 13.3434 12.0635 13.2291 11.8348 13.0005C11.6062 12.7717 11.4919 12.491 11.4919 12.1585V1.65462C11.4919 1.32216 11.6062 1.0416 11.8348 0.812956C12.0635 0.584136 12.3441 0.469727 12.6768 0.469727H19.0637C19.3962 0.469727 19.6768 0.584136 19.9054 0.812956C20.1342 1.0416 20.2486 1.32216 20.2486 1.65462V12.1585C20.2486 12.491 20.1342 12.7717 19.9054 13.0005C19.6768 13.2291 19.3962 13.3434 19.0637 13.3434H12.6768ZM1.93587 19.7367C1.60341 19.7367 1.32285 19.6223 1.09421 19.3934C0.865386 19.1648 0.750977 18.8842 0.750977 18.5518L0.751238 1.65462C0.751238 1.32216 0.865648 1.0416 1.09447 0.812956C1.32311 0.584136 1.60367 0.469727 1.93613 0.469727H8.32311C8.65575 0.469727 8.9364 0.584136 9.16504 0.812956C9.39369 1.0416 9.50801 1.32216 9.50801 1.65462L9.50775 18.5518C9.50775 18.8842 9.39343 19.1648 9.16478 19.3934C8.93613 19.6223 8.65549 19.7367 8.32285 19.7367H1.93587Z" fill="white"/>
</svg>
