<svg width="21" height="20" viewBox="0 0 21 20" fill="none" xmlns="http://www.w3.org/2000/svg">
<path d="M12.6768 13.1252C12.3441 13.1252 12.0635 13.0109 11.8348 12.7822C11.6062 12.5534 11.4919 12.2727 11.4919 11.9403V1.43636C11.4919 1.1039 11.6062 0.82334 11.8348 0.594694C12.0635 0.365874 12.3441 0.251465 12.6768 0.251465H19.0637C19.3962 0.251465 19.6768 0.365874 19.9054 0.594694C20.1342 0.82334 20.2486 1.1039 20.2486 1.43636V11.9403C20.2486 12.2727 20.1342 12.5534 19.9054 12.7822C19.6768 13.0109 19.3962 13.1252 19.0637 13.1252H12.6768ZM1.93587 19.5184C1.60341 19.5184 1.32285 19.404 1.09421 19.1752C0.865386 18.9465 0.750977 18.666 0.750977 18.3335L0.751238 1.43636C0.751238 1.1039 0.865648 0.82334 1.09447 0.594694C1.32311 0.365874 1.60367 0.251465 1.93613 0.251465H8.32311C8.65575 0.251465 8.9364 0.365874 9.16504 0.594694C9.39369 0.82334 9.50801 1.1039 9.50801 1.43636L9.50775 18.3335C9.50775 18.666 9.39343 18.9465 9.16478 19.1752C8.93613 19.404 8.65549 19.5184 8.32285 19.5184H1.93587Z" fill="#171929"/>
</svg>
